<?xml version="1.0" encoding="utf-8"?>
<!-- Generator: Adobe Illustrator 23.0.1, SVG Export Plug-In . SVG Version: 6.00 Build 0)  -->
<svg version="1.1" id="Layer_1" xmlns="http://www.w3.org/2000/svg" xmlns:xlink="http://www.w3.org/1999/xlink" x="0px" y="0px"
	 viewBox="0 0 214.6 214.6" style="enable-background:new 0 0 214.6 214.6;" xml:space="preserve">
<style type="text/css">
	.st0{clip-path:url(#SVGID_2_);fill:#A51C37;}
	.st1{clip-path:url(#SVGID_4_);fill:#A51C37;}
</style>
<g>
	<g>
		<defs>
			<rect id="SVGID_1_" width="214.6" height="214.6"/>
		</defs>
		<clipPath id="SVGID_2_">
			<use xlink:href="#SVGID_1_"  style="overflow:visible;"/>
		</clipPath>
		<path class="st0" d="M105,203.1c16.4,0,32.1-3.2,47-9.5c10.9-4.6,20.9-10.6,29.9-18.1c-4.6-21.7-15.5-39.5-37.9-39.5
			c-10.1,9.9-23.8,16-39,16s-28.9-6.1-39-16c-22.4,0-33.2,17.8-37.9,39.5c9,7.5,19,13.5,29.9,18.1C72.9,199.9,88.6,203.1,105,203.1"
			/>
	</g>
	<g>
		<defs>
			<rect id="SVGID_3_" width="214.6" height="214.6"/>
		</defs>
		<clipPath id="SVGID_4_">
			<use xlink:href="#SVGID_3_"  style="overflow:visible;"/>
		</clipPath>
		<path class="st1" d="M107.3,0c14.6,0,28.5,2.8,41.8,8.4c12.9,5.5,24.3,13.1,34.1,23c9.9,9.9,17.6,21.3,23,34.1
			c5.6,13.3,8.4,27.2,8.4,41.8s-2.8,28.5-8.4,41.8c-5.5,12.9-13.1,24.3-23,34.1c-9.9,9.9-21.3,17.6-34.1,23
			c-13.3,5.6-27.2,8.4-41.8,8.4s-28.5-2.8-41.8-8.4c-12.9-5.5-24.3-13.1-34.1-23c-9.9-9.9-17.6-21.3-23-34.1
			C2.8,135.8,0,121.9,0,107.3s2.8-28.5,8.4-41.8c5.5-12.9,13.1-24.3,23-34.1c9.9-9.9,21.3-17.6,34.1-23C78.8,2.8,92.8,0,107.3,0
			 M179.4,174.5c8.4-9,14.9-19.1,19.5-30.4c4.7-11.8,7.1-24,7.1-36.8c0-13.4-2.6-26.2-7.8-38.4c-5-11.8-12.1-22.2-21.2-31.3
			s-19.5-16.2-31.3-21.2c-12.2-5.2-25-7.8-38.4-7.8s-26.2,2.6-38.4,7.8c-11.8,5-22.2,12.1-31.3,21.2S21.4,57.1,16.4,68.9
			c-5.2,12.2-7.8,25-7.8,38.4c0,12.7,2.4,25,7.1,36.8c4.6,11.3,11.1,21.5,19.5,30.4c0.9-4.1,3.4-8.1,7.5-11.9
			c4.1-3.8,9.3-7.3,15.9-10.2c6.6-3.1,14,10.2,22.1,8.5c8.6-1.8,17.5-2.6,26.6-2.6c9.2,0,18,0.9,26.6,2.6
			c8.1,1.7,15.5-11.6,22.1-8.5c6.5,3,11.8,6.4,15.9,10.2C176,166.5,178.5,170.4,179.4,174.5 M69.8,83.7c0-7,1.7-13.5,5.2-19.5
			c3.3-5.8,7.8-10.4,13.5-13.9c5.8-3.5,12.1-5.3,18.9-5.3s13.1,1.8,18.9,5.3c5.7,3.4,10.1,8.1,13.5,13.9c3.4,6,5.2,12.5,5.2,19.5
			s-1.7,13.5-5.2,19.5c-3.3,5.8-7.8,10.4-13.5,13.9c-5.8,3.5-12.1,5.3-18.9,5.3s-13.1-1.8-18.9-5.3c-5.7-3.4-10.1-8.1-13.5-13.9
			C71.5,97.2,69.8,90.7,69.8,83.7"/>
	</g>
</g>
</svg>
