<svg width="64" height="64" viewBox="0 0 64 64" fill="none" xmlns="http://www.w3.org/2000/svg">
<circle cx="32" cy="32" r="31.5" fill="white" stroke="white"/>
<path d="M33.5858 32L28.2929 37.2929C27.9024 37.6834 27.9024 38.3166 28.2929 38.7071C28.6834 39.0976 29.3166 39.0976 29.7071 38.7071L35.7071 32.7071C36.0976 32.3166 36.0976 31.6834 35.7071 31.2929L29.7071 25.2929C29.3166 24.9024 28.6834 24.9024 28.2929 25.2929C27.9024 25.6834 27.9024 26.3166 28.2929 26.7071L33.5858 32Z" fill="#D80044"/>
<mask id="mask0" style="mask-type:alpha" maskUnits="userSpaceOnUse" x="28" y="25" width="8" height="14">
<path d="M33.5858 32L28.2929 37.2929C27.9024 37.6834 27.9024 38.3166 28.2929 38.7071C28.6834 39.0976 29.3166 39.0976 29.7071 38.7071L35.7071 32.7071C36.0976 32.3166 36.0976 31.6834 35.7071 31.2929L29.7071 25.2929C29.3166 24.9024 28.6834 24.9024 28.2929 25.2929C27.9024 25.6834 27.9024 26.3166 28.2929 26.7071L33.5858 32Z" fill="white"/>
</mask>
<g mask="url(#mask0)">
</g>
</svg>
