<svg width="64" height="64" viewBox="0 0 64 64" fill="none" xmlns="http://www.w3.org/2000/svg">
<circle r="31.5" transform="matrix(-1 0 0 1 32 32)" fill="white" stroke="white"/>
<path d="M30.4142 32L35.7071 37.2929C36.0976 37.6834 36.0976 38.3166 35.7071 38.7071C35.3166 39.0976 34.6834 39.0976 34.2929 38.7071L28.2929 32.7071C27.9024 32.3166 27.9024 31.6834 28.2929 31.2929L34.2929 25.2929C34.6834 24.9024 35.3166 24.9024 35.7071 25.2929C36.0976 25.6834 36.0976 26.3166 35.7071 26.7071L30.4142 32Z" fill="#D80044"/>
<mask id="mask0" style="mask-type:alpha" maskUnits="userSpaceOnUse" x="28" y="25" width="8" height="14">
<path d="M30.4142 32L35.7071 37.2929C36.0976 37.6834 36.0976 38.3166 35.7071 38.7071C35.3166 39.0976 34.6834 39.0976 34.2929 38.7071L28.2929 32.7071C27.9024 32.3166 27.9024 31.6834 28.2929 31.2929L34.2929 25.2929C34.6834 24.9024 35.3166 24.9024 35.7071 25.2929C36.0976 25.6834 36.0976 26.3166 35.7071 26.7071L30.4142 32Z" fill="white"/>
</mask>
<g mask="url(#mask0)">
</g>
</svg>
