<svg width="12" height="10" viewBox="0 0 12 10" fill="none" xmlns="http://www.w3.org/2000/svg">
<path fill-rule="evenodd" clip-rule="evenodd" d="M6.86193 9.4701C6.60158 9.20975 6.60158 8.78764 6.86193 8.52729L9.72386 5.66536H0.666667C0.298477 5.66536 0 5.36689 0 4.9987C0 4.63051 0.298477 4.33203 0.666667 4.33203H9.72386L6.86193 1.4701C6.60158 1.20975 6.60158 0.787643 6.86193 0.527293C7.12228 0.266944 7.54439 0.266944 7.80474 0.527293L11.8043 4.52685M11.8043 5.47059L7.80474 9.4701C7.54439 9.73045 7.12228 9.73045 6.86193 9.4701M11.8043 5.47059C11.8059 5.46898 11.8075 5.46736 11.8091 5.46573C11.8708 5.40283 11.9176 5.33073 11.9494 5.25389C11.982 5.17528 12 5.08909 12 4.9987C12 4.82999 11.9364 4.66127 11.8091 4.53167" fill="black"/>
</svg>
