<svg width="24" height="24" viewBox="0 0 24 24" fill="none" xmlns="http://www.w3.org/2000/svg">
<path fill-rule="evenodd" clip-rule="evenodd" d="M18.5858 3.99997L9.29289 13.2929C8.90237 13.6834 8.90237 14.3166 9.29289 14.7071C9.68342 15.0976 10.3166 15.0976 10.7071 14.7071L20 5.41419V8.99997C20 9.55226 20.4477 9.99997 21 9.99997C21.5523 9.99997 22 9.55226 22 8.99997V3.00095L22 2.99074C21.9988 2.86356 21.9735 2.73656 21.9241 2.61719L18.5858 3.99997ZM17 18.9999V12.9999C17 12.4476 17.4477 11.9999 18 11.9999C18.5523 11.9999 19 12.4476 19 12.9999V18.9999C19 20.6568 17.6569 21.9999 16 21.9999H5C3.34315 21.9999 2 20.6568 2 18.9999V7.99993C2 6.34307 3.34315 4.99993 5 4.99993H11C11.5523 4.99993 12 5.44764 12 5.99993C12 6.55221 11.5523 6.99993 11 6.99993H5C4.44772 6.99993 4 7.44764 4 7.99993V18.9999C4 19.5522 4.44772 19.9999 5 19.9999H16C16.5523 19.9999 17 19.5522 17 18.9999Z" fill="#D80044"/>
</svg>
