<svg width="18" height="22" viewBox="0 0 18 22" fill="none" xmlns="http://www.w3.org/2000/svg">
<path fill-rule="evenodd" clip-rule="evenodd" d="M6 0H12C13.1046 0 14 0.89543 14 2H15C16.6569 2 18 3.34315 18 5V19C18 20.6569 16.6569 22 15 22H3C1.34315 22 0 20.6569 0 19V5C0 3.34315 1.34315 2 3 2H4C4 0.89543 4.89543 0 6 0ZM12 6C13.1046 6 14 5.10457 14 4H15C15.5523 4 16 4.44772 16 5V19C16 19.5523 15.5523 20 15 20H3C2.44772 20 2 19.5523 2 19V5C2 4.44772 2.44772 4 3 4H4C4 5.10457 4.89543 6 6 6H12ZM6 4V2H12V4H6Z" fill="#D80044"/>
</svg>
