<svg width="64" height="64" viewBox="0 0 64 64" fill="none" xmlns="http://www.w3.org/2000/svg">
<circle cx="32" cy="32" r="31.5" stroke="white"/>
<path fill-rule="evenodd" clip-rule="evenodd" d="M45.9944 37.6206C46.9903 35.6489 47.5081 33.4635 47.5026 31.2481V30.5C47.1011 23.1803 41.3223 17.4016 34.0852 17.0023L33.2526 17C31.0404 16.9943 28.8544 17.512 26.8763 18.5112C22.0549 20.9208 19.0047 25.8531 19.0026 31.2495C18.9974 33.2491 19.4197 35.2269 20.2384 37.0491L17.5796 45.0257C17.1887 46.1983 18.3043 47.314 19.4769 46.9231L27.4535 44.2642C29.2758 45.0829 31.2539 45.5053 33.2565 45.5C38.6496 45.498 43.5818 42.4477 45.9944 37.6206ZM27.0783 41.227L21.3744 43.1283L23.2757 37.4244C23.4022 37.045 23.3719 36.6308 23.1916 36.2738C22.4055 34.7175 21.9981 32.9975 22.0027 31.254C22.0043 26.9903 24.4124 23.0964 28.2233 21.1918C29.7852 20.4029 31.5052 19.9955 33.2488 20L34.0027 20C39.6303 20.3128 44.1899 24.8724 44.5049 30.5827L44.5027 31.254C44.5072 32.9975 44.0999 34.7175 43.3138 36.2738C41.4063 40.0903 37.5124 42.4984 33.2521 42.5C31.5052 42.5046 29.7852 42.0972 28.2289 41.3111C27.872 41.1308 27.4577 41.1005 27.0783 41.227Z" fill="black"/>
<mask id="mask0" style="mask-type:alpha" maskUnits="userSpaceOnUse" x="17" y="17" width="31" height="31">
<path fill-rule="evenodd" clip-rule="evenodd" d="M45.9944 37.6206C46.9903 35.6489 47.5081 33.4635 47.5026 31.2481V30.5C47.1011 23.1803 41.3223 17.4016 34.0852 17.0023L33.2526 17C31.0404 16.9943 28.8544 17.512 26.8763 18.5112C22.0549 20.9208 19.0047 25.8531 19.0026 31.2495C18.9974 33.2491 19.4197 35.2269 20.2384 37.0491L17.5796 45.0257C17.1887 46.1983 18.3043 47.314 19.4769 46.9231L27.4535 44.2642C29.2758 45.0829 31.2539 45.5053 33.2565 45.5C38.6496 45.498 43.5818 42.4477 45.9944 37.6206ZM27.0783 41.227L21.3744 43.1283L23.2757 37.4244C23.4022 37.045 23.3719 36.6308 23.1916 36.2738C22.4055 34.7175 21.9981 32.9975 22.0027 31.254C22.0043 26.9903 24.4124 23.0964 28.2233 21.1918C29.7852 20.4029 31.5052 19.9955 33.2488 20L34.0027 20C39.6303 20.3128 44.1899 24.8724 44.5049 30.5827L44.5027 31.254C44.5072 32.9975 44.0999 34.7175 43.3138 36.2738C41.4063 40.0903 37.5124 42.4984 33.2521 42.5C31.5052 42.5046 29.7852 42.0972 28.2289 41.3111C27.872 41.1308 27.4577 41.1005 27.0783 41.227Z" fill="white"/>
</mask>
<g mask="url(#mask0)">
<rect x="14.5" y="14" width="36" height="36" fill="white"/>
</g>
<circle cx="27" cy="31" r="2" fill="white"/>
<circle cx="33" cy="31" r="2" fill="white"/>
<circle cx="39" cy="31" r="2" fill="white"/>
</svg>
