<svg width="16" height="16" viewBox="0 0 16 16" fill="none" xmlns="http://www.w3.org/2000/svg">
<rect width="16" height="16" rx="2" fill="#D80044"/>
<path d="M4.35355 8.14645C4.15829 7.95118 3.84171 7.95118 3.64645 8.14645C3.45118 8.34171 3.45118 8.65829 3.64645 8.85355L6.14645 11.3536C6.34171 11.5488 6.65829 11.5488 6.85355 11.3536L12.3536 5.85355C12.5488 5.65829 12.5488 5.34171 12.3536 5.14645C12.1583 4.95118 11.8417 4.95118 11.6464 5.14645L6.5 10.2929L4.35355 8.14645Z" fill="black"/>
<mask id="mask0" mask-type="alpha" maskUnits="userSpaceOnUse" x="3" y="5" width="10" height="7">
<path d="M4.35355 8.14645C4.15829 7.95118 3.84171 7.95118 3.64645 8.14645C3.45118 8.34171 3.45118 8.65829 3.64645 8.85355L6.14645 11.3536C6.34171 11.5488 6.65829 11.5488 6.85355 11.3536L12.3536 5.85355C12.5488 5.65829 12.5488 5.34171 12.3536 5.14645C12.1583 4.95118 11.8417 4.95118 11.6464 5.14645L6.5 10.2929L4.35355 8.14645Z" fill="white"/>
</mask>
<g mask="url(#mask0)">
<rect x="2" y="2" width="12" height="12" fill="white"/>
</g>
</svg>
