<svg width="25" height="24" viewBox="0 0 25 24" fill="none" xmlns="http://www.w3.org/2000/svg">
<path d="M13.6092 12L8.31633 17.2929C7.92581 17.6834 7.92581 18.3166 8.31633 18.7071C8.70686 19.0976 9.34002 19.0976 9.73054 18.7071L15.7305 12.7071C16.1211 12.3166 16.1211 11.6834 15.7305 11.2929L9.73054 5.29289C9.34002 4.90237 8.70686 4.90237 8.31633 5.29289C7.92581 5.68342 7.92581 6.31658 8.31633 6.70711L13.6092 12Z" fill="white"/>
<mask id="mask0" mask-type="alpha" maskUnits="userSpaceOnUse" x="8" y="5" width="9" height="14">
<path d="M13.6092 12L8.31633 17.2929C7.92581 17.6834 7.92581 18.3166 8.31633 18.7071C8.70686 19.0976 9.34002 19.0976 9.73054 18.7071L15.7305 12.7071C16.1211 12.3166 16.1211 11.6834 15.7305 11.2929L9.73054 5.29289C9.34002 4.90237 8.70686 4.90237 8.31633 5.29289C7.92581 5.68342 7.92581 6.31658 8.31633 6.70711L13.6092 12Z" fill="white"/>
</mask>
<g mask="url(#mask0)">
</g>
</svg>
