<?xml version="1.0" encoding="utf-8"?>
<!-- Generator: Adobe Illustrator 23.0.1, SVG Export Plug-In . SVG Version: 6.00 Build 0)  -->
<svg version="1.1" id="Layer_1" xmlns="http://www.w3.org/2000/svg" xmlns:xlink="http://www.w3.org/1999/xlink" x="0px" y="0px"
	 viewBox="0 0 202.4 202.4" style="enable-background:new 0 0 202.4 202.4;" xml:space="preserve">
<style type="text/css">
	.st0{clip-path:url(#SVGID_2_);fill:#FFFFFF;}
</style>
<g>
	<defs>
		<rect id="SVGID_1_" width="202.4" height="202.4"/>
	</defs>
	<clipPath id="SVGID_2_">
		<use xlink:href="#SVGID_1_"  style="overflow:visible;"/>
	</clipPath>
	<path class="st0" d="M130.7,134.8c1.1,0,2.1-0.4,2.9-1.2c0.8-0.8,1.2-1.7,1.2-2.9c0-1.1-0.4-2.1-1.2-2.9L93,87.3L87.3,93l40.6,40.6
		C128.7,134.4,129.6,134.8,130.7,134.8"/>
	<path class="st0" d="M71.7,67.7c-1.1,0-2.1,0.4-2.9,1.2c-0.8,0.8-1.2,1.7-1.2,2.9c0,1.1,0.4,2.1,1.2,2.9l40.6,40.6l5.7-5.7
		L74.5,68.8C73.8,68,72.8,67.7,71.7,67.7"/>
	<path class="st0" d="M67.9,130.5c0,1.1,0.4,2.1,1.2,2.9c0.8,0.8,1.7,1.2,2.9,1.2s2.1-0.4,2.9-1.2l40.6-40.6l-5.7-5.7l-40.6,40.6
		C68.3,128.4,67.9,129.4,67.9,130.5"/>
	<path class="st0" d="M134.5,71.9c0-1.1-0.4-2.1-1.2-2.9c-0.8-0.8-1.7-1.2-2.9-1.2c-1.1,0-2.1,0.4-2.9,1.2L87,109.7l5.7,5.7
		l40.6-40.6C134.1,74,134.5,73.1,134.5,71.9"/>
	<path class="st0" d="M194.5,61.8c-5.2-12.1-12.4-22.9-21.7-32.2c-9.3-9.3-20.1-16.6-32.2-21.7C128.1,2.6,115,0,101.2,0
		S74.3,2.6,61.8,7.9C49.7,13.1,39,20.3,29.6,29.6C20.3,39,13.1,49.7,7.9,61.8C2.6,74.3,0,87.5,0,101.2s2.6,26.9,7.9,39.4
		c5.2,12.1,12.4,22.9,21.7,32.2c9.3,9.3,20.1,16.6,32.2,21.7c12.5,5.3,25.6,7.9,39.4,7.9s26.9-2.6,39.4-7.9
		c12.1-5.2,22.9-12.4,32.2-21.7c9.3-9.3,16.6-20.1,21.7-32.2c5.3-12.5,7.9-25.6,7.9-39.4S199.8,74.3,194.5,61.8 M186.2,137.1
		c-4.7,11-11.3,20.8-19.8,29.4c-8.5,8.5-18.3,15.1-29.4,19.8c-11.4,4.8-23.4,7.3-35.9,7.3c-12.5,0-24.5-2.4-35.9-7.3
		c-11-4.7-20.8-11.3-29.4-19.8c-8.5-8.5-15.1-18.3-19.8-29.4c-4.8-11.4-7.3-23.4-7.3-35.9s2.4-24.5,7.3-35.9
		C20.9,54.3,27.4,44.5,36,36c8.5-8.5,18.3-15.1,29.4-19.8c11.4-4.8,23.4-7.3,35.9-7.3c12.5,0,24.5,2.4,35.9,7.3
		c11,4.7,20.8,11.3,29.4,19.8c8.5,8.5,15.1,18.3,19.8,29.4c4.8,11.4,7.3,23.4,7.3,35.9S191.1,125.7,186.2,137.1"/>
</g>
</svg>
