<svg width="103" height="103" viewBox="0 0 103 103" fill="none" xmlns="http://www.w3.org/2000/svg">
<circle cx="51.5" cy="51.5" r="51.5" fill="#F0F0F0" fill-opacity="0.371941"/>
<path fill-rule="evenodd" clip-rule="evenodd" d="M52 50.5858L57.2929 45.2929C57.6834 44.9024 58.3166 44.9024 58.7071 45.2929C59.0976 45.6834 59.0976 46.3166 58.7071 46.7071L53.4142 52L58.7071 57.2929C59.0976 57.6834 59.0976 58.3166 58.7071 58.7071C58.3166 59.0976 57.6834 59.0976 57.2929 58.7071L52 53.4142L46.7071 58.7071C46.3166 59.0976 45.6834 59.0976 45.2929 58.7071C44.9024 58.3166 44.9024 57.6834 45.2929 57.2929L50.5858 52L45.2929 46.7071C44.9024 46.3166 44.9024 45.6834 45.2929 45.2929C45.6834 44.9024 46.3166 44.9024 46.7071 45.2929L52 50.5858Z" fill="black"/>
<mask id="mask0" style="mask-type:alpha" maskUnits="userSpaceOnUse" x="45" y="45" width="14" height="14">
<path fill-rule="evenodd" clip-rule="evenodd" d="M52 50.5858L57.2929 45.2929C57.6834 44.9024 58.3166 44.9024 58.7071 45.2929C59.0976 45.6834 59.0976 46.3166 58.7071 46.7071L53.4142 52L58.7071 57.2929C59.0976 57.6834 59.0976 58.3166 58.7071 58.7071C58.3166 59.0976 57.6834 59.0976 57.2929 58.7071L52 53.4142L46.7071 58.7071C46.3166 59.0976 45.6834 59.0976 45.2929 58.7071C44.9024 58.3166 44.9024 57.6834 45.2929 57.2929L50.5858 52L45.2929 46.7071C44.9024 46.3166 44.9024 45.6834 45.2929 45.2929C45.6834 44.9024 46.3166 44.9024 46.7071 45.2929L52 50.5858Z" fill="white"/>
</mask>
<g mask="url(#mask0)">
<rect x="40" y="40" width="24" height="24" fill="white"/>
</g>
</svg>
