<svg width="48" height="48" viewBox="0 0 48 48" fill="none" xmlns="http://www.w3.org/2000/svg">
<circle opacity="0.400209" cx="24" cy="24" r="24" fill="white"/>
<path fill-rule="evenodd" clip-rule="evenodd" d="M17 19H30C30.5523 19 31 18.5523 31 18C31 17.4477 30.5523 17 30 17H17C16.4477 17 16 17.4477 16 18C16 18.5523 16.4477 19 17 19ZM25 25H30C30.5523 25 31 24.5523 31 24C31 23.4477 30.5523 23 30 23H25C24.4477 23 24 23.4477 24 24C24 24.5523 24.4477 25 25 25ZM30 31H21C20.4477 31 20 30.5523 20 30C20 29.4477 20.4477 29 21 29H30C30.5523 29 31 29.4477 31 30C31 30.5523 30.5523 31 30 31Z" fill="black"/>
<mask id="mask0" mask-type="alpha" maskUnits="userSpaceOnUse" x="16" y="17" width="15" height="14">
<path fill-rule="evenodd" clip-rule="evenodd" d="M17 19H30C30.5523 19 31 18.5523 31 18C31 17.4477 30.5523 17 30 17H17C16.4477 17 16 17.4477 16 18C16 18.5523 16.4477 19 17 19ZM25 25H30C30.5523 25 31 24.5523 31 24C31 23.4477 30.5523 23 30 23H25C24.4477 23 24 23.4477 24 24C24 24.5523 24.4477 25 25 25ZM30 31H21C20.4477 31 20 30.5523 20 30C20 29.4477 20.4477 29 21 29H30C30.5523 29 31 29.4477 31 30C31 30.5523 30.5523 31 30 31Z" fill="white"/>
</mask>
<g mask="url(#mask0)">
<rect x="11" y="12" width="24" height="24" fill="white"/>
</g>
</svg>
