<?xml version="1.0" encoding="utf-8"?>
<!-- Generator: Adobe Illustrator 23.0.1, SVG Export Plug-In . SVG Version: 6.00 Build 0)  -->
<svg version="1.1" id="Layer_1" xmlns="http://www.w3.org/2000/svg" xmlns:xlink="http://www.w3.org/1999/xlink" x="0px" y="0px"
	 viewBox="0 0 214.6 214.6" style="enable-background:new 0 0 214.6 214.6;" xml:space="preserve">
<style type="text/css">
	.st0{clip-path:url(#SVGID_2_);fill:#FFFFFF;}
</style>
<g>
	<defs>
		<rect id="SVGID_1_" width="214.6" height="214.6"/>
	</defs>
	<clipPath id="SVGID_2_">
		<use xlink:href="#SVGID_1_"  style="overflow:visible;"/>
	</clipPath>
	<path class="st0" d="M210.2,137.9c0.4-1.2,0.7-2.4,1-3.6c0.1-0.2,0.1-0.5,0.2-0.7c0.3-1.2,0.6-2.4,0.8-3.6c0.1-0.4,0.2-0.7,0.2-1.1
		c0.1-0.4,0.2-0.8,0.2-1.1h0c1.3-6.6,1.9-13.4,1.9-20.4c0-14.6-2.8-28.5-8.4-41.8c-5.5-12.9-13.1-24.3-23-34.1
		c-9.9-9.9-21.3-17.6-34.1-23C135.8,2.8,121.9,0,107.3,0C92.8,0,78.8,2.8,65.6,8.4c-12.9,5.5-24.3,13.1-34.1,23
		c-9.9,9.9-17.6,21.3-23,34.1C2.8,78.8,0,92.8,0,107.3c0,6.9,0.7,13.7,1.9,20.4h0c0.1,0.4,0.2,0.8,0.2,1.1c0.1,0.4,0.1,0.7,0.2,1.1
		c0.3,1.2,0.5,2.4,0.8,3.6c0.1,0.3,0.1,0.5,0.2,0.8c0.3,1.2,0.6,2.4,1,3.6c0,0.1,0.1,0.2,0.1,0.3c0.4,1.3,0.8,2.7,1.3,4
		c0,0.1,0,0.1,0.1,0.2h0c0.8,2.3,1.6,4.5,2.6,6.8c5.5,12.9,13.1,24.3,23,34.1c9.9,9.9,21.3,17.6,34.1,23c13.3,5.6,27.2,8.4,41.8,8.4
		c14.6,0,28.5-2.8,41.8-8.4c12.9-5.5,24.3-13.1,34.1-23c9.9-9.9,17.6-21.3,23-34.1c0.9-2.2,1.8-4.5,2.6-6.8h0c0-0.1,0-0.1,0.1-0.2
		c0.5-1.3,0.9-2.7,1.3-4C210.2,138.1,210.2,138,210.2,137.9 M198.3,145.8c-5,11.8-12.1,22.2-21.2,31.3c-9.1,9.1-19.5,16.2-31.3,21.2
		c-12.2,5.2-25,7.8-38.4,7.8c-13.4,0-26.2-2.6-38.4-7.8c-11.8-5-22.2-12.1-31.3-21.2c-9.1-9.1-16.2-19.5-21.2-31.3
		c-0.5-1.1-0.9-2.3-1.4-3.4h0c-4.3-11.2-6.4-22.9-6.4-35c0-13.4,2.6-26.2,7.8-38.4c5-11.8,12.1-22.2,21.2-31.3
		c9.1-9.1,19.5-16.2,31.3-21.2c12.2-5.2,25-7.8,38.4-7.8s26.2,2.6,38.4,7.8c11.8,5,22.2,12.1,31.3,21.2c9.1,9.1,16.2,19.5,21.2,31.3
		c5.2,12.2,7.8,25,7.8,38.4c0,12.1-2.2,23.8-6.4,35h0C199.2,143.5,198.7,144.6,198.3,145.8"/>
	<path class="st0" d="M154.7,153.5c1.2,0,2.2-0.4,3-1.3c0.8-0.8,1.3-1.9,1.3-3c0-1.2-0.4-2.2-1.3-3c-0.8-0.8-1.9-1.3-3-1.3H96
		c-1.2,0-2.2,0.4-3,1.3c-0.8,0.8-1.3,1.9-1.3,3c0,1.2,0.4,2.2,1.3,3c0.8,0.8,1.9,1.3,3,1.3H154.7z"/>
	<path class="st0" d="M154.7,111.6c1.2,0,2.2-0.4,3-1.3c0.8-0.8,1.3-1.9,1.3-3c0-1.2-0.4-2.2-1.3-3c-0.8-0.8-1.9-1.3-3-1.3H96
		c-1.2,0-2.2,0.4-3,1.3c-0.8,0.8-1.3,1.9-1.3,3c0,1.2,0.4,2.2,1.3,3c0.8,0.8,1.9,1.3,3,1.3H154.7z"/>
	<path class="st0" d="M154.7,69.7c1.2,0,2.2-0.4,3-1.3c0.8-0.8,1.3-1.9,1.3-3s-0.4-2.2-1.3-3c-0.8-0.8-1.9-1.3-3-1.3H96
		c-1.2,0-2.2,0.4-3,1.3c-0.8,0.8-1.3,1.9-1.3,3s0.4,2.2,1.3,3c0.8,0.8,1.9,1.3,3,1.3H154.7z"/>
	<path class="st0" d="M58.2,59.2c1.7-1.7,3.8-2.5,6.2-2.5c2.5,0,4.6,0.8,6.2,2.5c1.7,1.7,2.5,3.7,2.5,6.2c0,2.4-0.8,4.5-2.5,6.2
		c-1.7,1.7-3.8,2.6-6.2,2.6c-2.5,0-4.6-0.9-6.2-2.6c-1.7-1.7-2.5-3.8-2.5-6.2C55.7,62.9,56.5,60.9,58.2,59.2"/>
	<path class="st0" d="M58.2,101.1c1.7-1.7,3.8-2.5,6.2-2.5c2.5,0,4.6,0.8,6.2,2.5c1.7,1.7,2.5,3.7,2.5,6.2c0,2.4-0.8,4.5-2.5,6.2
		c-1.7,1.7-3.8,2.6-6.2,2.6c-2.5,0-4.6-0.9-6.2-2.6c-1.7-1.7-2.5-3.8-2.5-6.2C55.7,104.8,56.5,102.8,58.2,101.1"/>
	<path class="st0" d="M58.2,143c1.7-1.7,3.8-2.5,6.2-2.5c2.5,0,4.6,0.8,6.2,2.5c1.7,1.7,2.5,3.7,2.5,6.2c0,2.4-0.8,4.5-2.5,6.2
		c-1.7,1.7-3.8,2.6-6.2,2.6c-2.5,0-4.6-0.9-6.2-2.6c-1.7-1.7-2.5-3.8-2.5-6.2C55.7,146.7,56.5,144.7,58.2,143"/>
</g>
</svg>
