<svg width="26" height="25" viewBox="0 0 26 25" fill="none" xmlns="http://www.w3.org/2000/svg">
<path d="M12.7212 23.6606C14.7081 23.6606 16.6103 23.2878 18.4155 22.5539C19.7361 22.018 20.9476 21.3191 22.038 20.4453C21.4807 17.9174 20.1601 15.8438 17.4462 15.8438C16.2226 16.9971 14.5627 17.7077 12.7212 17.7077C10.8796 17.7077 9.21977 16.9971 7.9961 15.8438C5.28221 15.8438 3.97373 17.9174 3.4043 20.4453C4.4947 21.3191 5.70625 22.018 7.02685 22.5539C8.83207 23.2878 10.7342 23.6606 12.7212 23.6606Z" fill="#A51C37"/>
<path d="M12.7212 23.6606C14.7081 23.6606 16.6103 23.2878 18.4155 22.5539C19.7361 22.018 20.9476 21.3191 22.038 20.4453C21.4807 17.9174 20.1601 15.8438 17.4462 15.8438C16.2226 16.9971 14.5627 17.7077 12.7212 17.7077C10.8796 17.7077 9.21977 16.9971 7.9961 15.8438C5.28221 15.8438 3.97373 17.9174 3.4043 20.4453C4.4947 21.3191 5.70625 22.018 7.02685 22.5539C8.83207 23.2878 10.7342 23.6606 12.7212 23.6606Z" fill="white"/>
<path d="M13 0C14.7689 0 16.4529 0.326188 18.0643 0.978565C19.6272 1.61929 21.0084 2.50466 22.1957 3.65797C23.3952 4.81128 24.3281 6.13933 24.9823 7.63048C25.6608 9.17987 26 10.7992 26 12.5C26 14.2008 25.6608 15.8201 24.9823 17.3695C24.3159 18.8723 23.3952 20.2004 22.1957 21.342C20.9963 22.4953 19.6151 23.3924 18.0643 24.0214C16.4529 24.6738 14.7689 25 13 25C11.2311 25 9.54706 24.6738 7.93569 24.0214C6.37279 23.3807 4.99161 22.4953 3.80429 21.342C2.60485 20.1887 1.67195 18.8607 1.01771 17.3695C0.339236 15.8201 0 14.2008 0 12.5C0 10.7992 0.339236 9.17987 1.01771 7.63048C1.68406 6.12768 2.60485 4.79963 3.80429 3.65797C5.00373 2.50466 6.3849 1.60764 7.93569 0.978565C9.54706 0.326188 11.2432 0 13 0ZM21.7353 20.3285C22.753 19.2801 23.5405 18.1034 24.0979 16.787C24.6673 15.4124 24.9581 13.9911 24.9581 12.5C24.9581 10.939 24.6431 9.44781 24.013 8.02656C23.4073 6.65191 22.5471 5.44035 21.4445 4.38024C20.342 3.32013 19.082 2.49301 17.6524 1.91053C16.1743 1.30475 14.6235 1.00186 13 1.00186C11.3765 1.00186 9.82572 1.30475 8.34762 1.91053C6.91799 2.49301 5.65797 3.32013 4.55545 4.38024C3.45294 5.44035 2.59273 6.65191 1.98695 8.02656C1.35694 9.44781 1.04194 10.939 1.04194 12.5C1.04194 13.9795 1.33271 15.4124 1.90214 16.787C2.45946 18.1034 3.24697 19.2917 4.26468 20.3285C4.37372 19.8509 4.67661 19.3849 5.17335 18.9422C5.67008 18.4995 6.30009 18.0918 7.09972 17.754C7.89935 17.3928 8.7959 18.9422 9.77726 18.7442C10.8192 18.5345 11.8975 18.4413 13 18.4413C14.1146 18.4413 15.1808 18.5461 16.2227 18.7442C17.2041 18.9422 18.1007 17.3928 18.9003 17.754C19.6878 18.1034 20.3299 18.4995 20.8267 18.9422C21.3234 19.3966 21.6263 19.8509 21.7353 20.3285ZM8.45666 9.7507C8.45666 8.93523 8.66263 8.17801 9.08667 7.47903C9.48649 6.80335 10.0317 6.26747 10.7223 5.85974C11.425 5.452 12.1883 5.24231 13.0121 5.24231C13.836 5.24231 14.5993 5.452 15.302 5.85974C15.9925 6.25582 16.5256 6.80335 16.9376 7.47903C17.3495 8.17801 17.5676 8.93523 17.5676 9.7507C17.5676 10.5662 17.3616 11.3234 16.9376 12.0224C16.5377 12.698 15.9925 13.2339 15.302 13.6417C14.5993 14.0494 13.836 14.2591 13.0121 14.2591C12.1883 14.2591 11.425 14.0494 10.7223 13.6417C10.0317 13.2456 9.4986 12.698 9.08667 12.0224C8.66263 11.3234 8.45666 10.5662 8.45666 9.7507Z" fill="#A51C37"/>
<path d="M13 0C14.7689 0 16.4529 0.326188 18.0643 0.978565C19.6272 1.61929 21.0084 2.50466 22.1957 3.65797C23.3952 4.81128 24.3281 6.13933 24.9823 7.63048C25.6608 9.17987 26 10.7992 26 12.5C26 14.2008 25.6608 15.8201 24.9823 17.3695C24.3159 18.8723 23.3952 20.2004 22.1957 21.342C20.9963 22.4953 19.6151 23.3924 18.0643 24.0214C16.4529 24.6738 14.7689 25 13 25C11.2311 25 9.54706 24.6738 7.93569 24.0214C6.37279 23.3807 4.99161 22.4953 3.80429 21.342C2.60485 20.1887 1.67195 18.8607 1.01771 17.3695C0.339236 15.8201 0 14.2008 0 12.5C0 10.7992 0.339236 9.17987 1.01771 7.63048C1.68406 6.12768 2.60485 4.79963 3.80429 3.65797C5.00373 2.50466 6.3849 1.60764 7.93569 0.978565C9.54706 0.326188 11.2432 0 13 0ZM21.7353 20.3285C22.753 19.2801 23.5405 18.1034 24.0979 16.787C24.6673 15.4124 24.9581 13.9911 24.9581 12.5C24.9581 10.939 24.6431 9.44781 24.013 8.02656C23.4073 6.65191 22.5471 5.44035 21.4445 4.38024C20.342 3.32013 19.082 2.49301 17.6524 1.91053C16.1743 1.30475 14.6235 1.00186 13 1.00186C11.3765 1.00186 9.82572 1.30475 8.34762 1.91053C6.91799 2.49301 5.65797 3.32013 4.55545 4.38024C3.45294 5.44035 2.59273 6.65191 1.98695 8.02656C1.35694 9.44781 1.04194 10.939 1.04194 12.5C1.04194 13.9795 1.33271 15.4124 1.90214 16.787C2.45946 18.1034 3.24697 19.2917 4.26468 20.3285C4.37372 19.8509 4.67661 19.3849 5.17335 18.9422C5.67008 18.4995 6.30009 18.0918 7.09972 17.754C7.89935 17.3928 8.7959 18.9422 9.77726 18.7442C10.8192 18.5345 11.8975 18.4413 13 18.4413C14.1146 18.4413 15.1808 18.5461 16.2227 18.7442C17.2041 18.9422 18.1007 17.3928 18.9003 17.754C19.6878 18.1034 20.3299 18.4995 20.8267 18.9422C21.3234 19.3966 21.6263 19.8509 21.7353 20.3285ZM8.45666 9.7507C8.45666 8.93523 8.66263 8.17801 9.08667 7.47903C9.48649 6.80335 10.0317 6.26747 10.7223 5.85974C11.425 5.452 12.1883 5.24231 13.0121 5.24231C13.836 5.24231 14.5993 5.452 15.302 5.85974C15.9925 6.25582 16.5256 6.80335 16.9376 7.47903C17.3495 8.17801 17.5676 8.93523 17.5676 9.7507C17.5676 10.5662 17.3616 11.3234 16.9376 12.0224C16.5377 12.698 15.9925 13.2339 15.302 13.6417C14.5993 14.0494 13.836 14.2591 13.0121 14.2591C12.1883 14.2591 11.425 14.0494 10.7223 13.6417C10.0317 13.2456 9.4986 12.698 9.08667 12.0224C8.66263 11.3234 8.45666 10.5662 8.45666 9.7507Z" fill="white"/>
</svg>
