<svg width="26" height="25" viewBox="0 0 26 25" fill="none" xmlns="http://www.w3.org/2000/svg">
<g clip-path="url(#clip0)">
<path d="M10.3713 8.9946C10.4804 9.09945 10.6136 9.14605 10.759 9.14605H15.7022L8.55399 16.0193C8.44495 16.1242 8.39648 16.2523 8.39648 16.3921C8.39648 16.5319 8.44495 16.6717 8.55399 16.7649C8.66303 16.8697 8.7963 16.9163 8.94168 16.9163C9.09919 16.9163 9.23246 16.8697 9.32938 16.7649L16.4776 9.89162V14.6447C16.4776 14.7961 16.526 14.9242 16.6351 15.0174C16.7441 15.1223 16.8774 15.1689 17.0228 15.1689C17.1803 15.1689 17.3135 15.1223 17.4105 15.0174C17.5195 14.9126 17.568 14.7845 17.568 14.6447V8.61017C17.568 8.45872 17.5195 8.33058 17.4105 8.23738C17.3014 8.13254 17.1682 8.08594 17.0228 8.08594H10.759C10.6015 8.08594 10.4682 8.13254 10.3713 8.23738C10.2623 8.34223 10.2138 8.47037 10.2138 8.61017C10.2138 8.76161 10.2623 8.88976 10.3713 8.9946Z" fill="#A51C37"/>
<path d="M10.3713 8.9946C10.4804 9.09945 10.6136 9.14605 10.759 9.14605H15.7022L8.55399 16.0193C8.44495 16.1242 8.39648 16.2523 8.39648 16.3921C8.39648 16.5319 8.44495 16.6717 8.55399 16.7649C8.66303 16.8697 8.7963 16.9163 8.94168 16.9163C9.09919 16.9163 9.23246 16.8697 9.32938 16.7649L16.4776 9.89162V14.6447C16.4776 14.7961 16.526 14.9242 16.6351 15.0174C16.7441 15.1223 16.8774 15.1689 17.0228 15.1689C17.1803 15.1689 17.3135 15.1223 17.4105 15.0174C17.5195 14.9126 17.568 14.7845 17.568 14.6447V8.61017C17.568 8.45872 17.5195 8.33058 17.4105 8.23738C17.3014 8.13254 17.1682 8.08594 17.0228 8.08594H10.759C10.6015 8.08594 10.4682 8.13254 10.3713 8.23738C10.2623 8.34223 10.2138 8.47037 10.2138 8.61017C10.2138 8.76161 10.2623 8.88976 10.3713 8.9946Z" fill="white"/>
<path d="M25.4669 16.0648C25.5154 15.925 25.5517 15.7852 25.5881 15.6454C25.6002 15.6221 25.6002 15.5871 25.6123 15.5638C25.6486 15.424 25.685 15.2842 25.7092 15.1444C25.7213 15.0978 25.7335 15.0629 25.7335 15.0163C25.7456 14.9697 25.7577 14.9231 25.7577 14.8882C25.9152 14.1193 25.9879 13.3271 25.9879 12.5116C25.9879 10.8108 25.6486 9.19151 24.9702 7.64212C24.3038 6.13933 23.383 4.81128 22.1836 3.66962C20.9842 2.51631 19.603 1.61929 18.0522 0.990214C16.4529 0.326188 14.7689 0 13 0C11.2432 0 9.54706 0.326188 7.94781 0.978564C6.3849 1.61929 5.00373 2.50466 3.8164 3.65797C2.61696 4.81127 1.68406 6.13933 1.02982 7.63047C0.339236 9.17987 0 10.8108 0 12.5C0 13.3038 0.0848089 14.096 0.230196 14.8765C0.242311 14.9231 0.254427 14.9697 0.254427 15.0047C0.266542 15.0513 0.266542 15.0862 0.278658 15.1328C0.315005 15.2726 0.339236 15.4124 0.375582 15.5522C0.387698 15.5871 0.387698 15.6104 0.399814 15.6454C0.43616 15.7852 0.472507 15.925 0.520969 16.0648C0.520969 16.0764 0.533085 16.0881 0.533085 16.0997C0.581547 16.2512 0.630009 16.4143 0.690587 16.5657C0.690587 16.5773 0.690587 16.5773 0.702703 16.589C0.799627 16.8569 0.896552 17.1132 1.01771 17.3812C1.68406 18.884 2.60485 20.212 3.80429 21.3537C5.00373 22.507 6.3849 23.404 7.93569 24.0331C9.54706 24.6855 11.2311 25.0116 13 25.0116C14.7689 25.0116 16.4529 24.6855 18.0643 24.0331C19.6272 23.3923 21.0084 22.507 22.1957 21.3537C23.3952 20.2004 24.3281 18.8723 24.9823 17.3812C25.0913 17.1249 25.2004 16.8569 25.2973 16.589C25.2973 16.5773 25.2973 16.5773 25.3094 16.5657C25.37 16.4143 25.4185 16.2512 25.4669 16.0997C25.4669 16.0881 25.4669 16.0764 25.4669 16.0648ZM24.0252 16.9851C23.4194 18.3597 22.5592 19.5713 21.4567 20.6314C20.3541 21.6915 19.0941 22.5186 17.6645 23.1011C16.1864 23.7069 14.6356 24.0098 13.0121 24.0098C11.3886 24.0098 9.83784 23.7069 8.35974 23.1011C6.9301 22.5186 5.67008 21.6915 4.56757 20.6314C3.46505 19.5713 2.60485 18.3597 1.99907 16.9851C1.93849 16.8569 1.89003 16.7171 1.82945 16.589C1.30848 15.2842 1.05405 13.9212 1.05405 12.5116C1.05405 10.9506 1.36906 9.45946 1.99907 8.03821C2.60485 6.66356 3.46505 5.452 4.56757 4.39189C5.67008 3.33178 6.9301 2.50466 8.35974 1.92218C9.83784 1.3164 11.3886 1.01351 13.0121 1.01351C14.6356 1.01351 16.1864 1.3164 17.6645 1.92218C19.0941 2.50466 20.3541 3.33178 21.4567 4.39189C22.5592 5.452 23.4194 6.66356 24.0252 8.03821C24.6552 9.45946 24.9702 10.9506 24.9702 12.5116C24.9702 13.9212 24.7036 15.2842 24.1948 16.589C24.1342 16.7171 24.0736 16.8453 24.0252 16.9851Z" fill="#A51C37"/>
<path d="M25.4669 16.0648C25.5154 15.925 25.5517 15.7852 25.5881 15.6454C25.6002 15.6221 25.6002 15.5871 25.6123 15.5638C25.6486 15.424 25.685 15.2842 25.7092 15.1444C25.7213 15.0978 25.7335 15.0629 25.7335 15.0163C25.7456 14.9697 25.7577 14.9231 25.7577 14.8882C25.9152 14.1193 25.9879 13.3271 25.9879 12.5116C25.9879 10.8108 25.6486 9.19151 24.9702 7.64212C24.3038 6.13933 23.383 4.81128 22.1836 3.66962C20.9842 2.51631 19.603 1.61929 18.0522 0.990214C16.4529 0.326188 14.7689 0 13 0C11.2432 0 9.54706 0.326188 7.94781 0.978564C6.3849 1.61929 5.00373 2.50466 3.8164 3.65797C2.61696 4.81127 1.68406 6.13933 1.02982 7.63047C0.339236 9.17987 0 10.8108 0 12.5C0 13.3038 0.0848089 14.096 0.230196 14.8765C0.242311 14.9231 0.254427 14.9697 0.254427 15.0047C0.266542 15.0513 0.266542 15.0862 0.278658 15.1328C0.315005 15.2726 0.339236 15.4124 0.375582 15.5522C0.387698 15.5871 0.387698 15.6104 0.399814 15.6454C0.43616 15.7852 0.472507 15.925 0.520969 16.0648C0.520969 16.0764 0.533085 16.0881 0.533085 16.0997C0.581547 16.2512 0.630009 16.4143 0.690587 16.5657C0.690587 16.5773 0.690587 16.5773 0.702703 16.589C0.799627 16.8569 0.896552 17.1132 1.01771 17.3812C1.68406 18.884 2.60485 20.212 3.80429 21.3537C5.00373 22.507 6.3849 23.404 7.93569 24.0331C9.54706 24.6855 11.2311 25.0116 13 25.0116C14.7689 25.0116 16.4529 24.6855 18.0643 24.0331C19.6272 23.3923 21.0084 22.507 22.1957 21.3537C23.3952 20.2004 24.3281 18.8723 24.9823 17.3812C25.0913 17.1249 25.2004 16.8569 25.2973 16.589C25.2973 16.5773 25.2973 16.5773 25.3094 16.5657C25.37 16.4143 25.4185 16.2512 25.4669 16.0997C25.4669 16.0881 25.4669 16.0764 25.4669 16.0648ZM24.0252 16.9851C23.4194 18.3597 22.5592 19.5713 21.4567 20.6314C20.3541 21.6915 19.0941 22.5186 17.6645 23.1011C16.1864 23.7069 14.6356 24.0098 13.0121 24.0098C11.3886 24.0098 9.83784 23.7069 8.35974 23.1011C6.9301 22.5186 5.67008 21.6915 4.56757 20.6314C3.46505 19.5713 2.60485 18.3597 1.99907 16.9851C1.93849 16.8569 1.89003 16.7171 1.82945 16.589C1.30848 15.2842 1.05405 13.9212 1.05405 12.5116C1.05405 10.9506 1.36906 9.45946 1.99907 8.03821C2.60485 6.66356 3.46505 5.452 4.56757 4.39189C5.67008 3.33178 6.9301 2.50466 8.35974 1.92218C9.83784 1.3164 11.3886 1.01351 13.0121 1.01351C14.6356 1.01351 16.1864 1.3164 17.6645 1.92218C19.0941 2.50466 20.3541 3.33178 21.4567 4.39189C22.5592 5.452 23.4194 6.66356 24.0252 8.03821C24.6552 9.45946 24.9702 10.9506 24.9702 12.5116C24.9702 13.9212 24.7036 15.2842 24.1948 16.589C24.1342 16.7171 24.0736 16.8453 24.0252 16.9851Z" fill="white"/>
</g>
<defs>
<clipPath id="clip0">
<rect width="26" height="25" fill="white"/>
</clipPath>
</defs>
</svg>
